<svg width="474" height="168" viewBox="0 0 474 168" fill="none" xmlns="http://www.w3.org/2000/svg">
<path d="M427.629 62.8887L439.113 56.2887V69.4887L450.465 62.8887C450.465 60.5127 450.993 58.0487 452.049 55.4967C453.105 52.8567 454.513 50.4367 456.273 48.2367C458.033 45.9487 459.925 44.2327 461.949 43.0887L473.301 36.4887V49.6887L461.949 56.2887C461.949 58.5767 461.421 61.0407 460.365 63.6807C459.309 66.3207 457.901 68.7847 456.141 71.0727C454.381 73.2727 452.489 74.9447 450.465 76.0887L439.113 82.6887V122.289L427.629 128.889V62.8887ZM427.629 62.8887V128.889L416.145 122.289V56.2887L427.629 62.8887ZM473.301 36.4887L461.949 43.0887C459.925 44.2327 458.033 45.9487 456.273 48.2367C454.513 50.4367 453.105 52.8567 452.049 55.4967C450.993 58.0487 450.465 60.5127 450.465 62.8887L439.113 56.2887C439.113 53.9127 439.641 51.4487 440.697 48.8967C441.753 46.2567 443.117 43.8367 444.789 41.6367C446.549 39.3487 448.441 37.6327 450.465 36.4887L461.949 29.8887L473.301 36.4887ZM450.465 62.8887L439.113 69.4887L427.629 62.8887L439.113 56.2887L450.465 62.8887ZM439.113 56.2887L427.629 62.8887L416.145 56.2887L427.629 49.6887L439.113 56.2887Z" fill="black"/>
<path d="M370.534 51.0085L393.37 37.8085C396.362 36.0485 399.002 35.8285 401.29 37.1485C403.578 38.4685 404.722 40.8885 404.722 44.4085V64.2085C404.722 66.4965 404.194 68.9605 403.138 71.6005C402.082 74.2405 400.674 76.7045 398.914 78.9925C397.242 81.1925 395.394 82.8645 393.37 84.0085L381.886 90.6085C378.894 92.3685 376.254 92.5885 373.966 91.2685C371.678 89.9485 370.534 87.5285 370.534 84.0085V114.369L404.722 94.5685V107.769L370.534 127.569C367.454 129.329 364.77 129.549 362.482 128.229C360.194 126.909 359.05 124.489 359.05 120.969V70.8085C359.05 68.4325 359.578 65.9685 360.634 63.4165C361.69 60.7765 363.098 58.3565 364.858 56.1565C366.618 53.8685 368.51 52.1525 370.534 51.0085ZM393.37 51.0085L370.534 64.2085V84.0085L393.37 70.8085V51.0085ZM404.722 94.5685L370.534 114.369L359.05 107.769L393.37 87.9685L404.722 94.5685ZM393.37 51.0085V70.8085L381.886 64.2085V44.4085L393.37 51.0085ZM370.534 84.0085C370.534 87.5285 371.678 89.9485 373.966 91.2685L362.482 84.6685C360.194 83.3485 359.05 80.9285 359.05 77.4085L370.534 84.0085ZM393.37 70.8085L370.534 84.0085L359.05 77.4085L381.886 64.2085L393.37 70.8085ZM401.29 37.1485C399.002 35.8285 396.362 36.0485 393.37 37.8085L370.534 51.0085C368.51 52.1525 366.618 53.8685 364.858 56.1565C363.098 58.3565 361.69 60.7765 360.634 63.4165C359.578 65.9685 359.05 68.4325 359.05 70.8085V120.969C359.05 124.489 360.194 126.909 362.482 128.229L350.998 121.629C348.71 120.309 347.566 117.889 347.566 114.369V64.2085C347.566 61.8325 348.094 59.3685 349.15 56.8165C350.206 54.1765 351.614 51.7565 353.374 49.5565C355.134 47.2685 357.026 45.5525 359.05 44.4085L381.886 31.2085C384.966 29.4485 387.65 29.2285 389.938 30.5485L401.29 37.1485Z" fill="black"/>
<path d="M313.308 44.4086L324.792 37.8086C327.784 36.0486 330.424 35.8286 332.712 37.1486C335 38.4686 336.144 40.8886 336.144 44.4086V102.489L324.792 109.089V51.0086L301.956 64.2086V122.289L290.472 128.889V23.2886L301.956 16.6886V64.2086C301.956 61.8326 302.484 59.3686 303.54 56.8166C304.596 54.1766 305.96 51.7566 307.632 49.5566C309.392 47.2686 311.284 45.5526 313.308 44.4086ZM324.792 51.0086V109.089L313.308 102.489V44.4086L324.792 51.0086ZM332.712 37.1486C330.424 35.8286 327.784 36.0486 324.792 37.8086L313.308 44.4086C311.284 45.5526 309.392 47.2686 307.632 49.5566C305.96 51.7566 304.596 54.1766 303.54 56.8166C302.484 59.3686 301.956 61.8326 301.956 64.2086L290.472 57.6086C290.472 55.2326 291 52.7686 292.056 50.2166C293.112 47.5766 294.52 45.1566 296.28 42.9566C298.04 40.6686 299.932 38.9526 301.956 37.8086L313.308 31.2086C316.388 29.4486 319.072 29.2286 321.36 30.5486L332.712 37.1486ZM301.956 16.6886L290.472 23.2886L278.988 16.6886L290.472 10.0886L301.956 16.6886ZM290.472 23.2886V128.889L278.988 122.289V16.6886L290.472 23.2886Z" fill="black"/>
<path d="M233.378 51.0085L256.214 37.8085C259.206 36.0485 261.846 35.8285 264.134 37.1485C266.422 38.4685 267.566 40.8885 267.566 44.4085V57.6085L256.214 64.2085V51.0085L233.378 64.2085V114.369L256.214 101.169V87.9685L267.566 81.3685V94.5685C267.566 96.8565 267.038 99.3205 265.982 101.961C264.926 104.601 263.518 107.065 261.758 109.353C260.086 111.553 258.238 113.225 256.214 114.369L233.378 127.569C230.298 129.329 227.614 129.549 225.326 128.229C223.038 126.909 221.894 124.489 221.894 120.969V70.8085C221.894 68.4325 222.422 65.9685 223.478 63.4165C224.534 60.7765 225.942 58.3565 227.702 56.1565C229.462 53.8685 231.354 52.1525 233.378 51.0085ZM267.566 81.3685L256.214 87.9685L244.73 81.3685L256.214 74.7685L267.566 81.3685ZM256.214 87.9685V101.169L244.73 94.5685V81.3685L256.214 87.9685ZM256.214 101.169L233.378 114.369L221.894 107.769L244.73 94.5685L256.214 101.169ZM256.214 51.0085V64.2085L244.73 57.6085V44.4085L256.214 51.0085ZM264.134 37.1485C261.846 35.8285 259.206 36.0485 256.214 37.8085L233.378 51.0085C231.354 52.1525 229.462 53.8685 227.702 56.1565C225.942 58.3565 224.534 60.7765 223.478 63.4165C222.422 65.9685 221.894 68.4325 221.894 70.8085V120.969C221.894 124.489 223.038 126.909 225.326 128.229L213.842 121.629C211.554 120.309 210.41 117.889 210.41 114.369V64.2085C210.41 61.8325 210.938 59.3685 211.994 56.8165C213.05 54.1765 214.458 51.7565 216.218 49.5565C217.978 47.2685 219.87 45.5525 221.894 44.4085L244.73 31.2085C247.81 29.4485 250.494 29.2285 252.782 30.5485L264.134 37.1485Z" fill="black"/>
<path d="M164.793 72.7885L153.441 79.3885V66.1885L164.793 59.5885V46.3885L176.277 39.7885V66.1885C176.277 63.8125 176.805 61.3485 177.861 58.7965C178.917 56.1565 180.281 53.7365 181.953 51.5365C183.713 49.2485 185.605 47.5325 187.629 46.3885L199.113 39.7885V52.9885L176.277 66.1885V116.348L199.113 103.148V116.348L176.277 129.548C173.197 131.308 170.513 131.528 168.225 130.208C165.937 128.888 164.793 126.468 164.793 122.948V72.7885ZM199.113 103.148L176.277 116.348L164.793 109.748L187.629 96.5485L199.113 103.148ZM199.113 39.7885L187.629 46.3885C185.605 47.5325 183.713 49.2485 181.953 51.5365C180.281 53.7365 178.917 56.1565 177.861 58.7965C176.805 61.3485 176.277 63.8125 176.277 66.1885L164.793 59.5885C164.793 57.2125 165.321 54.7485 166.377 52.1965C167.433 49.5565 168.841 47.1365 170.601 44.9365C172.361 42.6485 174.253 40.9325 176.277 39.7885L187.629 33.1885L199.113 39.7885ZM164.793 59.5885L153.441 66.1885L141.957 59.5885L153.441 52.9885L164.793 59.5885ZM164.793 72.7885V122.948C164.793 126.468 165.937 128.888 168.225 130.208L156.873 123.608C154.585 122.288 153.441 119.868 153.441 116.348V66.1885L164.793 72.7885ZM176.277 39.7885L164.793 46.3885L153.441 39.7885L164.793 33.1885L176.277 39.7885ZM164.793 46.3885V59.5885L153.441 52.9885V39.7885L164.793 46.3885ZM153.441 66.1885V79.3885L141.957 72.7885V59.5885L153.441 66.1885Z" fill="black"/>
<path d="M90.5387 57.6085L124.859 37.8085C127.851 36.0485 130.491 35.8285 132.779 37.1485C135.067 38.4685 136.211 40.8885 136.211 44.4085V107.769L124.859 114.369V101.169C124.859 103.457 124.331 105.921 123.275 108.561C122.219 111.201 120.811 113.665 119.051 115.953C117.291 118.153 115.399 119.825 113.375 120.969L102.023 127.569C98.9427 129.329 96.2587 129.549 93.9707 128.229C91.6827 126.909 90.5387 124.489 90.5387 120.969V102.489C90.5387 100.113 91.0667 97.6485 92.1227 95.0965C93.1787 92.4565 94.5867 90.0365 96.3467 87.8365C98.1067 85.5485 99.9987 83.8325 102.023 82.6885L124.859 69.4885V51.0085L90.5387 70.8085V57.6085ZM102.023 114.369L124.859 101.169V82.6885L102.023 95.8885V114.369ZM124.859 51.0085V69.4885L113.375 62.8885V44.4085L124.859 51.0085ZM124.859 101.169V114.369L113.375 107.769V94.5685L124.859 101.169ZM124.859 82.6885V101.169L113.375 94.5685V76.0885L124.859 82.6885ZM124.859 101.169L102.023 114.369L90.5387 107.769L113.375 94.5685L124.859 101.169ZM124.859 69.4885L102.023 82.6885C99.9987 83.8325 98.1067 85.5485 96.3467 87.8365C94.5867 90.0365 93.1787 92.4565 92.1227 95.0965C91.0667 97.6485 90.5387 100.113 90.5387 102.489V120.969C90.5387 124.489 91.6827 126.909 93.9707 128.229L82.4867 121.629C80.1987 120.309 79.0547 117.889 79.0547 114.369V95.8885C79.0547 93.5125 79.5827 91.0485 80.6387 88.4965C81.6947 85.8565 83.1027 83.4365 84.8627 81.2365C86.6227 78.9485 88.5147 77.2325 90.5387 76.0885L113.375 62.8885L124.859 69.4885ZM132.779 37.1485C130.491 35.8285 127.851 36.0485 124.859 37.8085L90.5387 57.6085L79.0547 51.0085L113.375 31.2085C116.455 29.4485 119.139 29.2285 121.427 30.5485L132.779 37.1485ZM90.5387 57.6085V70.8085L79.0547 64.2085V51.0085L90.5387 57.6085Z" fill="black"/>
<path d="M27.6438 24.6086L56.1558 8.10857C59.1478 6.34857 61.7878 6.12857 64.0758 7.44857C66.4518 8.76857 67.6398 11.1886 67.6398 14.7086V27.9086L56.1558 34.5086V21.3086L27.6438 37.8086V114.369L56.1558 97.8686V84.6686L67.6398 78.0686V91.2686C67.6398 93.5566 67.0678 96.0206 65.9238 98.6606C64.8678 101.301 63.4598 103.765 61.6998 106.053C60.0278 108.253 58.1798 109.925 56.1558 111.069L27.6438 127.569C24.5638 129.329 21.8798 129.549 19.5918 128.229C17.3038 126.909 16.1598 124.489 16.1598 120.969V44.4086C16.1598 42.0326 16.6878 39.5686 17.7438 37.0166C18.7998 34.3766 20.2078 31.9566 21.9678 29.7566C23.7278 27.4686 25.6198 25.7526 27.6438 24.6086ZM67.6398 78.0686L56.1558 84.6686L44.6718 78.0686L56.1558 71.4686L67.6398 78.0686ZM56.1558 84.6686V97.8686L44.6718 91.2686V78.0686L56.1558 84.6686ZM56.1558 97.8686L27.6438 114.369L16.1598 107.769L44.6718 91.2686L56.1558 97.8686ZM56.1558 21.3086V34.5086L44.6718 27.9086V14.7086L56.1558 21.3086ZM64.2078 7.44857C61.8318 6.12857 59.1478 6.34857 56.1558 8.10857L27.6438 24.6086C25.6198 25.7526 23.7278 27.4686 21.9678 29.7566C20.2078 31.9566 18.7998 34.3766 17.7438 37.0166C16.6878 39.5686 16.1598 42.0326 16.1598 44.4086V120.969C16.1598 124.489 17.3038 126.909 19.5918 128.229L8.10778 121.629C5.81978 120.309 4.67578 117.889 4.67578 114.369V37.8086C4.67578 35.4326 5.20378 32.9686 6.25978 30.4166C7.31578 27.7766 8.72378 25.3566 10.4838 23.1566C12.2438 20.8686 14.1358 19.1526 16.1598 18.0086L44.6718 1.50857C47.7518 -0.251429 50.4358 -0.47143 52.7238 0.848574L64.2078 7.44857Z" fill="black"/>
<path d="M353.706 161.673C352.01 161.673 350.57 161.342 349.386 160.681C348.202 160.019 347.247 159.134 346.522 158.025C345.796 156.905 345.263 155.657 344.922 154.281C344.591 152.905 344.426 151.507 344.426 150.089C344.426 148.681 344.596 147.294 344.938 145.929C345.29 144.553 345.834 143.305 346.57 142.185C347.306 141.065 348.26 140.174 349.434 139.513C350.618 138.841 352.042 138.505 353.706 138.505C355.082 138.505 356.244 138.702 357.194 139.097C358.154 139.491 358.932 139.998 359.53 140.617C360.138 141.225 360.607 141.865 360.938 142.537L358.442 143.817C358.09 143.294 357.706 142.83 357.29 142.425C356.874 142.009 356.378 141.683 355.802 141.449C355.226 141.214 354.527 141.097 353.706 141.097C352.511 141.097 351.503 141.369 350.682 141.913C349.86 142.457 349.199 143.171 348.698 144.057C348.207 144.942 347.85 145.913 347.626 146.969C347.412 148.025 347.306 149.065 347.306 150.089C347.306 151.198 347.428 152.286 347.674 153.353C347.919 154.419 348.303 155.385 348.826 156.249C349.348 157.102 350.01 157.785 350.81 158.297C351.62 158.798 352.586 159.049 353.706 159.049C354.943 159.049 355.935 158.787 356.682 158.265C357.428 157.731 358.058 157.043 358.57 156.201L361.13 157.161C360.746 157.993 360.223 158.75 359.562 159.433C358.9 160.115 358.084 160.659 357.114 161.065C356.154 161.47 355.018 161.673 353.706 161.673Z" fill="black"/>
<path d="M328.386 161.289V138.889H341.858V141.513H331.17V148.393H338.242V151.017H331.17V161.289H328.386Z" fill="black"/>
<path d="M308.229 161.289V138.889H316.805C318.619 138.889 320.053 139.219 321.109 139.881C322.165 140.531 322.917 141.374 323.365 142.409C323.813 143.433 324.037 144.499 324.037 145.609C324.037 146.377 323.904 147.155 323.637 147.945C323.381 148.723 322.965 149.443 322.389 150.105C321.813 150.766 321.067 151.299 320.149 151.705C319.232 152.099 318.117 152.297 316.805 152.297H311.013V161.289H308.229ZM311.013 149.705H316.997C318.053 149.705 318.891 149.497 319.509 149.081C320.139 148.665 320.587 148.142 320.853 147.513C321.12 146.883 321.253 146.249 321.253 145.609C321.253 145.022 321.131 144.409 320.885 143.769C320.651 143.129 320.224 142.59 319.605 142.153C318.987 141.705 318.117 141.481 316.997 141.481H311.013V149.705Z" fill="black"/>
<path d="M294.742 161.673C293.046 161.673 291.596 161.353 290.39 160.713C289.185 160.062 288.204 159.187 287.446 158.089C286.689 156.979 286.129 155.737 285.766 154.361C285.414 152.974 285.238 151.55 285.238 150.089C285.238 148.638 285.425 147.225 285.798 145.849C286.182 144.473 286.758 143.235 287.526 142.137C288.305 141.027 289.292 140.147 290.486 139.497C291.681 138.835 293.1 138.505 294.742 138.505C296.129 138.505 297.281 138.691 298.198 139.065C299.126 139.438 299.889 139.929 300.486 140.537C301.084 141.134 301.59 141.769 302.006 142.441L299.51 143.881C298.998 143.145 298.385 142.505 297.67 141.961C296.956 141.406 295.98 141.129 294.742 141.129C293.494 141.129 292.444 141.401 291.59 141.945C290.748 142.478 290.07 143.187 289.558 144.073C289.046 144.958 288.678 145.929 288.454 146.985C288.23 148.03 288.118 149.065 288.118 150.089C288.118 151.241 288.246 152.35 288.502 153.417C288.758 154.483 289.153 155.438 289.686 156.281C290.22 157.123 290.902 157.79 291.734 158.281C292.577 158.771 293.58 159.017 294.742 159.017C295.756 159.017 296.636 158.798 297.382 158.361C298.14 157.923 298.726 157.321 299.142 156.553C299.558 155.774 299.766 154.878 299.766 153.865V152.969H295.702V150.409H302.678V153.097C302.678 154.953 302.326 156.521 301.622 157.801C300.929 159.07 299.98 160.035 298.774 160.697C297.58 161.347 296.236 161.673 294.742 161.673Z" fill="black"/>
<path d="M263.186 167.497L265.682 160.873L259.634 144.937H262.418L266.482 156.073C266.599 156.361 266.695 156.622 266.77 156.857C266.844 157.091 266.919 157.353 266.994 157.641C267.079 157.353 267.159 157.091 267.234 156.857C267.308 156.622 267.399 156.361 267.506 156.073L271.634 144.937H274.482L266.002 167.497H263.186Z" fill="black"/>
<path d="M250.413 161.673C249.603 161.673 248.867 161.529 248.205 161.241C247.544 160.953 246.883 160.499 246.221 159.881V161.289H243.438V139.497L246.221 138.185V146.345C246.733 145.779 247.347 145.342 248.061 145.033C248.787 144.713 249.539 144.553 250.317 144.553C251.704 144.553 252.904 144.899 253.917 145.593C254.931 146.286 255.715 147.273 256.27 148.553C256.824 149.833 257.102 151.347 257.102 153.097C257.102 155.817 256.515 157.929 255.341 159.433C254.168 160.926 252.525 161.673 250.413 161.673ZM250.029 159.081C251.395 159.081 252.44 158.563 253.165 157.529C253.891 156.494 254.253 155.017 254.253 153.097C254.253 151.145 253.891 149.662 253.165 148.649C252.451 147.625 251.405 147.113 250.029 147.113C249.293 147.113 248.568 147.321 247.854 147.737C247.139 148.142 246.595 148.659 246.221 149.289V156.873C246.627 157.545 247.165 158.083 247.837 158.489C248.52 158.883 249.251 159.081 250.029 159.081Z" fill="black"/>
<path d="M223.73 161.673C221.65 161.673 220.002 160.905 218.786 159.369C217.58 157.822 216.978 155.731 216.978 153.097C216.978 151.347 217.25 149.833 217.794 148.553C218.348 147.273 219.127 146.286 220.13 145.593C221.143 144.899 222.343 144.553 223.73 144.553C225.33 144.553 226.706 145.065 227.858 146.089V139.497L230.642 138.185V161.289H227.858V160.009C226.78 161.118 225.404 161.673 223.73 161.673ZM224.114 159.081C224.882 159.081 225.591 158.889 226.242 158.505C226.903 158.121 227.442 157.577 227.858 156.873V149.193C227.442 148.553 226.903 148.046 226.242 147.673C225.58 147.299 224.871 147.113 224.114 147.113C222.738 147.113 221.671 147.63 220.914 148.665C220.167 149.699 219.794 151.177 219.794 153.097C219.794 154.281 219.975 155.321 220.338 156.217C220.7 157.113 221.207 157.817 221.858 158.329C222.508 158.83 223.26 159.081 224.114 159.081Z" fill="black"/>
<path d="M206.46 161.672C204.967 161.672 203.676 161.304 202.588 160.568C201.5 159.832 200.663 158.819 200.076 157.528C199.49 156.238 199.196 154.76 199.196 153.096C199.196 151.294 199.5 149.758 200.108 148.488C200.716 147.208 201.564 146.232 202.652 145.56C203.74 144.888 205.01 144.552 206.46 144.552C207.687 144.552 208.812 144.83 209.836 145.384C210.86 145.928 211.676 146.776 212.284 147.928C212.903 149.07 213.212 150.536 213.212 152.328C213.212 152.584 213.202 152.883 213.18 153.224C213.17 153.555 213.148 153.896 213.116 154.248H202.044C202.151 155.24 202.396 156.11 202.78 156.856C203.164 157.603 203.671 158.19 204.3 158.616C204.93 159.032 205.671 159.24 206.524 159.24C207.218 159.24 207.858 159.118 208.444 158.872C209.042 158.627 209.596 158.248 210.108 157.736L211.74 159.56C211.132 160.168 210.375 160.675 209.468 161.08C208.572 161.475 207.57 161.672 206.46 161.672ZM202.012 151.816H210.396C210.396 150.888 210.242 150.062 209.932 149.336C209.634 148.6 209.191 148.024 208.604 147.608C208.018 147.192 207.303 146.984 206.46 146.984C205.276 146.984 204.258 147.368 203.404 148.136C202.562 148.904 202.098 150.131 202.012 151.816Z" fill="black"/>
<path d="M188.531 161.288V144.936H191.315V147.08C191.689 146.248 192.201 145.619 192.851 145.192C193.513 144.766 194.291 144.552 195.187 144.552C196.179 144.552 197.022 144.83 197.715 145.384L197.299 148.008C196.947 147.763 196.579 147.587 196.195 147.48C195.822 147.363 195.411 147.304 194.963 147.304C194.227 147.304 193.587 147.502 193.043 147.896C192.499 148.291 192.073 148.846 191.763 149.56C191.465 150.275 191.315 151.112 191.315 152.072V161.288H188.531Z" fill="black"/>
<path d="M177.304 161.672C175.811 161.672 174.52 161.304 173.432 160.568C172.344 159.832 171.507 158.819 170.92 157.528C170.333 156.238 170.04 154.76 170.04 153.096C170.04 151.294 170.344 149.758 170.952 148.488C171.56 147.208 172.408 146.232 173.496 145.56C174.584 144.888 175.853 144.552 177.304 144.552C178.531 144.552 179.656 144.83 180.68 145.384C181.704 145.928 182.52 146.776 183.128 147.928C183.747 149.07 184.056 150.536 184.056 152.328C184.056 152.584 184.045 152.883 184.024 153.224C184.013 153.555 183.992 153.896 183.96 154.248H172.888C172.995 155.24 173.24 156.11 173.624 156.856C174.008 157.603 174.515 158.19 175.144 158.616C175.773 159.032 176.515 159.24 177.368 159.24C178.061 159.24 178.701 159.118 179.288 158.872C179.885 158.627 180.44 158.248 180.952 157.736L182.584 159.56C181.976 160.168 181.219 160.675 180.312 161.08C179.416 161.475 178.413 161.672 177.304 161.672ZM172.856 151.816H181.24C181.24 150.888 181.085 150.062 180.776 149.336C180.477 148.6 180.035 148.024 179.448 147.608C178.861 147.192 178.147 146.984 177.304 146.984C176.12 146.984 175.101 147.368 174.248 148.136C173.405 148.904 172.941 150.131 172.856 151.816Z" fill="black"/>
<path d="M151.173 161.289L146.981 144.937H149.733L152.229 155.913C152.304 156.211 152.368 156.51 152.421 156.809C152.485 157.097 152.539 157.374 152.581 157.641C152.635 157.363 152.699 157.081 152.773 156.793C152.848 156.494 152.923 156.201 152.997 155.913L156.069 144.937H158.373L161.445 155.913C161.531 156.233 161.611 156.542 161.685 156.841C161.76 157.129 161.829 157.417 161.893 157.705C161.947 157.427 162 157.139 162.053 156.841C162.107 156.542 162.171 156.233 162.245 155.913L164.709 144.937H167.461L163.269 161.289H160.773L157.797 151.593C157.701 151.273 157.595 150.915 157.477 150.521C157.371 150.126 157.275 149.769 157.189 149.449C157.115 149.769 157.024 150.126 156.917 150.521C156.811 150.915 156.709 151.273 156.613 151.593L153.669 161.289H151.173Z" fill="black"/>
<path d="M137.178 161.672C134.938 161.672 133.173 160.91 131.882 159.384C130.592 157.848 129.946 155.763 129.946 153.128C129.946 151.368 130.24 149.848 130.826 148.568C131.413 147.288 132.245 146.302 133.322 145.608C134.41 144.904 135.696 144.552 137.178 144.552C138.672 144.552 139.957 144.899 141.034 145.592C142.122 146.275 142.954 147.256 143.53 148.536C144.117 149.816 144.41 151.336 144.41 153.096C144.41 154.856 144.117 156.382 143.53 157.672C142.944 158.952 142.106 159.939 141.018 160.632C139.941 161.326 138.661 161.672 137.178 161.672ZM137.178 159.08C138.554 159.08 139.632 158.552 140.41 157.496C141.2 156.43 141.594 154.963 141.594 153.096C141.594 151.219 141.2 149.752 140.41 148.696C139.632 147.64 138.554 147.112 137.178 147.112C135.792 147.112 134.709 147.64 133.93 148.696C133.152 149.742 132.762 151.219 132.762 153.128C132.762 154.995 133.152 156.456 133.93 157.512C134.709 158.558 135.792 159.08 137.178 159.08Z" fill="black"/>
<path d="M111.136 161.289V138.889H119.712C121.525 138.889 122.96 139.219 124.016 139.881C125.072 140.531 125.824 141.374 126.272 142.409C126.72 143.433 126.944 144.499 126.944 145.609C126.944 146.377 126.81 147.155 126.544 147.945C126.288 148.723 125.872 149.443 125.296 150.105C124.72 150.766 123.973 151.299 123.056 151.705C122.138 152.099 121.024 152.297 119.712 152.297H113.92V161.289H111.136ZM113.92 149.705H119.904C120.96 149.705 121.797 149.497 122.416 149.081C123.045 148.665 123.493 148.142 123.76 147.513C124.026 146.883 124.16 146.249 124.16 145.609C124.16 145.022 124.037 144.409 123.792 143.769C123.557 143.129 123.13 142.59 122.512 142.153C121.893 141.705 121.024 141.481 119.904 141.481H113.92V149.705Z" fill="black"/>
<line y1="151.289" x2="99" y2="151.289" stroke="black" stroke-width="2"/>
<line x1="370" y1="151.289" x2="469" y2="151.289" stroke="black" stroke-width="2"/>
</svg>
